<svg width="512" height="512" viewBox="0 0 512 512" fill="none" xmlns="http://www.w3.org/2000/svg">
<path d="M65.5627 397.496C62.124 395.54 60 391.889 60 387.934V124.816C60 120.554 62.4626 116.675 66.3201 114.861L169.82 66.2041C177.115 62.7744 185.5 68.0976 185.5 76.1589V146.472C185.5 150.671 183.109 154.504 179.339 156.351L166.62 162.58C163.136 164.287 159.01 164.031 155.762 161.908L152.98 160.089C149.873 158.057 148 154.595 148 150.882V134.661C148 126.726 139.854 121.401 132.586 124.585L102.086 137.947C98.0848 139.7 95.5 143.655 95.5 148.023V395.924C95.5 399.329 93.8969 402.535 91.1731 404.578C87.7281 407.162 83.0789 407.456 79.3356 405.327L65.5627 397.496Z" fill="white"/>
<path d="M153.503 437.008C150.098 435.043 148 431.411 148 427.479V204.623C148 200.204 150.644 196.214 154.714 194.492L156.358 193.796C159.305 192.55 162.649 192.648 165.518 194.066L285.374 253.305C289.126 255.159 291.5 258.981 291.5 263.166V271.951C291.5 276.161 289.098 280.001 285.312 281.843L277.808 285.493C274.773 286.97 271.227 286.971 268.19 285.496L201.306 253.01C194 249.461 185.5 254.782 185.5 262.904V434.785C185.5 438.274 183.844 441.556 181.038 443.63L179.794 444.55C176.275 447.151 171.549 447.419 167.759 445.232L153.503 437.008Z" fill="white"/>
<path d="M258.598 482.357C255.399 483.91 251.647 483.822 248.525 482.119L226.233 469.96C222.699 468.032 220.5 464.328 220.5 460.303V455.884C220.5 451.587 223.003 447.683 226.908 445.889L233.79 442.726C237.055 441.226 240.846 441.415 243.946 443.232L248.579 445.948C251.664 447.757 255.437 447.952 258.693 446.472L318.552 419.264C322.479 417.479 325 413.563 325 409.25V252.865C325 248.325 327.79 244.251 332.023 242.609L343.765 238.057C347.329 236.675 351.354 237.242 354.397 239.555L357.554 241.954C360.348 244.077 361.961 247.407 361.896 250.916L358.625 427.089C358.548 431.227 356.156 434.971 352.433 436.779L258.598 482.357Z" fill="white"/>
<path fill-rule="evenodd" clip-rule="evenodd" d="M222.5 50.8566C222.5 46.5734 224.986 42.6796 228.872 40.8775L252.282 30.0209C255.269 28.6356 258.719 28.6613 261.685 30.0908L444.776 118.333C448.581 120.167 451 124.018 451 128.242V387.274C451 391.575 448.493 395.482 444.583 397.274L407.434 414.301C404.61 415.595 401.372 415.635 398.517 414.411L392.167 411.69C388.122 409.957 385.5 405.98 385.5 401.579V392.327C385.5 388.32 387.678 384.631 391.186 382.695L408.814 372.97C412.322 371.034 414.5 367.345 414.5 363.339V161.259C414.5 153.299 406.307 147.974 399.032 151.207L261.708 212.24C258.725 213.566 255.307 213.498 252.378 212.055L228.638 200.357C224.88 198.505 222.5 194.68 222.5 190.49V50.8566ZM348.224 131.335C356.452 127.276 356.388 115.521 348.116 111.552L272.759 75.394C265.456 71.8903 257 77.2123 257 85.3114V158.641C257 166.792 265.556 172.112 272.866 168.506L348.224 131.335Z" fill="white"/>
<path d="M252 332.333C252 341.445 244.837 348.833 236 348.833C227.163 348.833 220 341.445 220 332.333C220 323.22 227.163 315.833 236 315.833C244.837 315.833 252 323.22 252 332.333Z" fill="white"/>
<path d="M284 383.333C284 392.445 276.837 399.833 268 399.833C259.163 399.833 252 392.445 252 383.333C252 374.22 259.163 366.833 268 366.833C276.837 366.833 284 374.22 284 383.333Z" fill="white"/>
</svg>
